<?xml version="1.0" encoding="utf-8"?>
<svg xmlns="http://www.w3.org/2000/svg" style="margin: auto; display: block; shape-rendering: auto; background: none;" width="280" height="50" preserveAspectRatio="xMidYMid">
<style type="text/css">
  text {
    text-anchor: middle; font-size: 40px; opacity: 0;
  }
</style>
<g style="transform-origin:140px 25px;transform:scale(1)">
<g transform="translate(140,25)">
  <g transform="translate(0,0)"><g class="path" style="transform: matrix(0.01, 0, 0, 0.01, 0, 0); transform-origin: -121.66px -3.15892px; animation: 1s linear 0s 1 normal forwards running bounce-in-2c578103-c2a7-4ca6-a557-37998a190f5d;"><path d="M11.64 0.44L11.64 0.44L11.64 0.44Q8.04 0.44 5.58-1.76L5.58-1.76L5.58-1.76Q3.12-3.96 3.12-7.20L3.12-7.20L2.72-26.80L8.48-27.80L7.84-10.28L7.84-10.28Q7.84-7.48 9.14-5.92L9.14-5.92L9.14-5.92Q10.44-4.36 13.16-4.36L13.16-4.36L13.16-4.36Q15.88-4.36 17.08-5.88L17.08-5.88L17.08-5.88Q18.28-7.40 18.28-11.12L18.28-11.12L17.80-26.80L23.40-27.80L22.96-10.20L22.96-10.20Q22.96-5.48 19.80-2.52L19.80-2.52L19.80-2.52Q16.64 0.44 11.64 0.44" fill="#fa5d49" stroke="none" stroke-width="none" transform="translate(-134.72003173828125,10.521082700841571)" style="fill: rgb(250, 93, 73);"></path></g><g class="path" style="transform: matrix(0.01, 0, 0, 0.01, 0, 0); transform-origin: -98.24px -3.27892px; animation: 1s linear 0.0388235s 1 normal forwards running bounce-in-2c578103-c2a7-4ca6-a557-37998a190f5d;"><path d="M43.72-27.60L43.28-23.32L34.76-23.32L34.52-15.96L42.16-15.96L41.72-11.72L34.40-11.72L34.36-10.40L34.84 0L29.24 0L29.72-9.72L29.24-27.60L43.72-27.60" fill="#fa5d49" stroke="none" stroke-width="none" transform="translate(-134.72003173828125,10.521082700841571)" style="fill: rgb(250, 93, 73);"></path></g><g class="path" style="transform: matrix(0.01, 0, 0, 0.01, 0, 0); transform-origin: -81.18px -3.25892px; animation: 1s linear 0.0776471s 1 normal forwards running bounce-in-2c578103-c2a7-4ca6-a557-37998a190f5d;"><path d="M44.24-3.64L47.36-7.96L47.36-7.96Q50.76-4.56 54.16-4.56L54.16-4.56L54.16-4.56Q55.92-4.56 56.98-5.38L56.98-5.38L56.98-5.38Q58.04-6.20 58.04-7.50L58.04-7.50L58.04-7.50Q58.04-8.80 56.76-9.70L56.76-9.70L56.76-9.70Q55.48-10.60 53.66-11.28L53.66-11.28L53.66-11.28Q51.84-11.96 50.04-12.82L50.04-12.82L50.04-12.82Q48.24-13.68 46.96-15.28L46.96-15.28L46.96-15.28Q45.68-16.88 45.68-19.16L45.68-19.16L45.68-19.16Q45.68-22.76 48.68-25.38L48.68-25.38L48.68-25.38Q51.68-28 55.80-28L55.80-28L55.80-28Q57.68-28 59.44-27.60L59.44-27.60L59.44-27.60Q61.20-27.20 62.84-26.44L62.84-26.44L60.12-20.60L60.12-20.60Q59-21.48 57.06-22.22L57.06-22.22L57.06-22.22Q55.12-22.96 53.66-22.96L53.66-22.96L53.66-22.96Q52.20-22.96 51.30-22.26L51.30-22.26L51.30-22.26Q50.40-21.56 50.40-20.40L50.40-20.40L50.40-20.40Q50.40-19.24 51.68-18.34L51.68-18.34L51.68-18.34Q52.96-17.44 54.78-16.76L54.78-16.76L54.78-16.76Q56.60-16.08 58.42-15.26L58.42-15.26L58.42-15.26Q60.24-14.44 61.52-12.84L61.52-12.84L61.52-12.84Q62.80-11.24 62.80-8.96L62.80-8.96L62.80-8.96Q62.80-5.20 59.80-2.38L59.80-2.38L59.80-2.38Q56.80 0.44 52.80 0.44L52.80 0.44L52.80 0.44Q49.80 0.44 47.48-1L47.48-1L47.48-1Q45.44-2.24 44.60-3.20L44.60-3.20L44.24-3.64" fill="#fa5d49" stroke="none" stroke-width="none" transform="translate(-134.72003173828125,10.521082700841571)" style="fill: rgb(250, 93, 73);"></path></g><g class="path" style="transform: matrix(0.01, 0, 0, 0.01, 0, 0); transform-origin: -50.44px -3.05892px; animation: 1s linear 0.116471s 1 normal forwards running bounce-in-2c578103-c2a7-4ca6-a557-37998a190f5d;"><path d="M81.40 0.44L81.40 0.44L81.40 0.44Q78.56 0.44 73.20 0L73.20 0L73.68-9.72L73.20-27.60L83.88-27.60L83.88-27.60Q89.28-27.60 92.32-24.36L92.32-24.36L92.32-24.36Q95.36-21.12 95.36-15.36L95.36-15.36L95.36-15.36Q95.36-8.08 91.60-3.82L91.60-3.82L91.60-3.82Q87.84 0.44 81.40 0.44zM82.44-23.28L82.44-23.28L82.44-23.28Q79.80-23.28 78.72-23.24L78.72-23.24L78.32-10.40L78.60-3.92L78.60-3.92Q81.96-3.68 83.12-3.68L83.12-3.68L83.12-3.68Q86.28-3.68 88.10-6.24L88.10-6.24L88.10-6.24Q89.92-8.80 89.92-13.68L89.92-13.68L89.92-13.68Q89.92-18.56 88.14-20.92L88.14-20.92L88.14-20.92Q86.36-23.28 82.44-23.28" fill="#fa5d49" stroke="none" stroke-width="none" transform="translate(-134.72003173828125,10.521082700841571)" style="fill: rgb(250, 93, 73);"></path></g><g class="path" style="transform: matrix(0.01, 0, 0, 0.01, 0, 0); transform-origin: -33.18px 0.341083px; animation: 1s linear 0.155294s 1 normal forwards running bounce-in-2c578103-c2a7-4ca6-a557-37998a190f5d;"><path d="M98.88-19.36L104.24-20.36L103.76-10.40L104.20-1L98.84 0L99.32-9.72L98.88-19.36" fill="#fa5d49" stroke="none" stroke-width="none" transform="translate(-134.72003173828125,10.521082700841571)" style="fill: rgb(250, 93, 73);"></path></g><g class="path" style="transform: matrix(0.01, 0, 0, 0.01, 0, 0); transform-origin: -33px -15.8789px; animation: 1s linear 0.194118s 1 normal forwards running bounce-in-2c578103-c2a7-4ca6-a557-37998a190f5d;"><path d="M98.60-26.22L98.60-26.22L98.60-26.22Q98.60-27.56 99.64-28.62L99.64-28.62L99.64-28.62Q100.68-29.68 102.04-29.68L102.04-29.68L102.04-29.68Q103.40-29.68 104.12-28.94L104.12-28.94L104.12-28.94Q104.84-28.20 104.84-26.72L104.84-26.72L104.84-26.72Q104.84-25.24 103.82-24.18L103.82-24.18L103.82-24.18Q102.80-23.12 101.46-23.12L101.46-23.12L101.46-23.12Q100.12-23.12 99.36-24L99.36-24L99.36-24Q98.60-24.88 98.60-26.22" fill="#fa5d49" stroke="none" stroke-width="none" transform="translate(-134.72003173828125,10.521082700841571)" style="fill: rgb(250, 93, 73);"></path></g><g class="path" style="transform: matrix(0.01, 0, 0, 0.01, 0, 0); transform-origin: -20.8px 0.441083px; animation: 1s linear 0.232941s 1 normal forwards running bounce-in-2c578103-c2a7-4ca6-a557-37998a190f5d;"><path d="M114.68-3.72L114.68-3.72L114.68-3.72Q116.76-3.72 116.76-5.56L116.76-5.56L116.76-5.56Q116.76-6.20 115.86-6.76L115.86-6.76L115.86-6.76Q114.96-7.32 113.66-7.88L113.66-7.88L113.66-7.88Q112.36-8.44 111.06-9.14L111.06-9.14L111.06-9.14Q109.76-9.84 108.86-11.08L108.86-11.08L108.86-11.08Q107.96-12.32 107.96-13.92L107.96-13.92L107.96-13.92Q107.96-16.60 110.32-18.60L110.32-18.60L110.32-18.60Q112.68-20.60 115.76-20.60L115.76-20.60L115.76-20.60Q117.20-20.60 118.58-20.26L118.58-20.26L118.58-20.26Q119.96-19.92 121.24-19.20L121.24-19.20L118.56-14.32L118.56-14.32Q118.28-14.56 117.84-14.92L117.84-14.92L117.84-14.92Q117.40-15.28 116.18-15.86L116.18-15.86L116.18-15.86Q114.96-16.44 114.02-16.44L114.02-16.44L114.02-16.44Q113.08-16.44 112.58-16.02L112.58-16.02L112.58-16.02Q112.08-15.60 112.08-14.86L112.08-14.86L112.08-14.86Q112.08-14.12 113.46-13.38L113.46-13.38L113.46-13.38Q114.84-12.64 116.48-12.02L116.48-12.02L116.48-12.02Q118.12-11.40 119.50-9.98L119.50-9.98L119.50-9.98Q120.88-8.56 120.88-6.60L120.88-6.60L120.88-6.60Q120.88-3.80 118.58-1.68L118.58-1.68L118.58-1.68Q116.28 0.44 113.28 0.44L113.28 0.44L113.28 0.44Q111.36 0.44 109.70-0.40L109.70-0.40L109.70-0.40Q108.04-1.24 107.32-2.08L107.32-2.08L106.60-2.92L109.76-6.60L109.76-6.60Q110.00-6.28 110.44-5.80L110.44-5.80L110.44-5.80Q110.88-5.32 112.18-4.52L112.18-4.52L112.18-4.52Q113.48-3.72 114.68-3.72" fill="#fa5d49" stroke="none" stroke-width="none" transform="translate(-134.72003173828125,10.521082700841571)" style="fill: rgb(250, 93, 73);"></path></g><g class="path" style="transform: matrix(0.01, 0, 0, 0.01, 0, 0); transform-origin: -2.12003px 4.60108px; animation: 1s linear 0.271765s 1 normal forwards running bounce-in-2c578103-c2a7-4ca6-a557-37998a190f5d;"><path d="M135.08-20.20L135.08-20.20L135.08-20.20Q137.64-20.20 139.38-17.96L139.38-17.96L139.38-17.96Q141.12-15.72 141.12-11.92L141.12-11.92L141.12-11.92Q141.12-6.60 138.38-3.30L138.38-3.30L138.38-3.30Q135.64 0 131.56 0L131.56 0L131.56 0Q130.72 0 129.68-0.12L129.68-0.12L129.88 7.52L124.40 8.52L124.92-9.72L124.96-9.72L124.96-9.72Q124.80-15.08 124.08-19.32L124.08-19.32L128.92-20.36L128.92-20.36Q129.16-18.24 129.32-16.16L129.32-16.16L129.32-16.16Q129.40-16.36 130.14-17.26L130.14-17.26L130.14-17.26Q130.88-18.16 132.32-19.18L132.32-19.18L132.32-19.18Q133.76-20.20 135.08-20.20zM133.52-15L133.52-15L133.52-15Q131.40-15 129.40-13.84L129.40-13.84L129.40-10.40L129.56-4.68L129.56-4.68Q131.72-4.32 132.84-4.32L132.84-4.32L132.84-4.32Q136.68-4.32 136.68-9.66L136.68-9.66L136.68-9.66Q136.68-15 133.52-15" fill="#fa5d49" stroke="none" stroke-width="none" transform="translate(-134.72003173828125,10.521082700841571)" style="fill: rgb(250, 93, 73);"></path></g><g class="path" style="transform: matrix(0.01, 0, 0, 0.01, 0, 0); transform-origin: 16.26px 0.441083px; animation: 1s linear 0.310588s 1 normal forwards running bounce-in-2c578103-c2a7-4ca6-a557-37998a190f5d;"><path d="M151.64-4.08L151.64-4.08L151.64-4.08Q152.80-4.08 154.08-4.68L154.08-4.68L154.08-4.68Q155.36-5.28 156.08-5.88L156.08-5.88L156.80-6.48L158.64-4.24L158.64-4.24Q158.24-3.56 157.40-2.68L157.40-2.68L157.40-2.68Q156.56-1.80 155.70-1.18L155.70-1.18L155.70-1.18Q154.84-0.56 153.42-0.06L153.42-0.06L153.42-0.06Q152 0.44 150.48 0.44L150.48 0.44L150.48 0.44Q147.24 0.44 145.20-2.02L145.20-2.02L145.20-2.02Q143.16-4.48 143.16-8.36L143.16-8.36L143.16-8.36Q143.16-13.24 146-16.92L146-16.92L146-16.92Q148.84-20.60 152.64-20.60L152.64-20.60L152.64-20.60Q155.56-20.60 157.18-18.96L157.18-18.96L157.18-18.96Q158.80-17.32 158.80-14.36L158.80-14.36L158.80-14.36Q158.80-12.60 158.20-10.36L158.20-10.36L157.40-9.52L147.40-8.60L147.40-8.60Q148.08-4.08 151.64-4.08zM151.64-16.48L151.64-16.48L151.64-16.48Q149.88-16.48 148.68-15.06L148.68-15.06L148.68-15.06Q147.48-13.64 147.28-11.44L147.28-11.44L154.08-12.28L154.08-12.28Q154.20-13.20 154.20-13.80L154.20-13.80L154.20-13.80Q154.20-16.48 151.64-16.48" fill="#fa5d49" stroke="none" stroke-width="none" transform="translate(-134.72003173828125,10.521082700841571)" style="fill: rgb(250, 93, 73);"></path></g><g class="path" style="transform: matrix(0.01, 0, 0, 0.01, 0, 0); transform-origin: 35.6px 0.441083px; animation: 1s linear 0.349412s 1 normal forwards running bounce-in-2c578103-c2a7-4ca6-a557-37998a190f5d;"><path d="M173.88-10.12L173.88-10.12Q173.88-12.88 173.40-13.80L173.40-13.80L173.40-13.80Q172.92-14.72 171.16-14.72L171.16-14.72L171.16-14.72Q169.40-14.72 167.16-13.32L167.16-13.32L167.16-10.40L167.60-1L162.24 0L162.72-9.72L162.72-9.72Q162.56-15.08 161.84-19.32L161.84-19.32L166.68-20.36L166.68-20.36Q166.96-18.04 167.08-15.84L167.08-15.84L167.08-15.84Q167.68-16.64 168.44-17.42L168.44-17.42L168.44-17.42Q169.20-18.20 170.84-19.18L170.84-19.18L170.84-19.18Q172.48-20.16 174.30-20.16L174.30-20.16L174.30-20.16Q176.12-20.16 177.36-18.74L177.36-18.74L177.36-18.74Q178.60-17.32 178.60-14.88L178.60-14.88L178.36-10.40L178.80-0.80L173.40 0.20L173.88-10.12" fill="#fa5d49" stroke="none" stroke-width="none" transform="translate(-134.72003173828125,10.521082700841571)" style="fill: rgb(250, 93, 73);"></path></g><g class="path" style="transform: matrix(0.01, 0, 0, 0.01, 0, 0); transform-origin: 53.76px 0.441083px; animation: 1s linear 0.388235s 1 normal forwards running bounce-in-2c578103-c2a7-4ca6-a557-37998a190f5d;"><path d="M189.24-3.72L189.24-3.72L189.24-3.72Q191.32-3.72 191.32-5.56L191.32-5.56L191.32-5.56Q191.32-6.20 190.42-6.76L190.42-6.76L190.42-6.76Q189.52-7.32 188.22-7.88L188.22-7.88L188.22-7.88Q186.92-8.44 185.62-9.14L185.62-9.14L185.62-9.14Q184.32-9.84 183.42-11.08L183.42-11.08L183.42-11.08Q182.52-12.32 182.52-13.92L182.52-13.92L182.52-13.92Q182.52-16.60 184.88-18.60L184.88-18.60L184.88-18.60Q187.24-20.60 190.32-20.60L190.32-20.60L190.32-20.60Q191.76-20.60 193.14-20.26L193.14-20.26L193.14-20.26Q194.52-19.92 195.80-19.20L195.80-19.20L193.12-14.32L193.12-14.32Q192.84-14.56 192.40-14.92L192.40-14.92L192.40-14.92Q191.96-15.28 190.74-15.86L190.74-15.86L190.74-15.86Q189.52-16.44 188.58-16.44L188.58-16.44L188.58-16.44Q187.64-16.44 187.14-16.02L187.14-16.02L187.14-16.02Q186.64-15.60 186.64-14.86L186.64-14.86L186.64-14.86Q186.64-14.12 188.02-13.38L188.02-13.38L188.02-13.38Q189.40-12.64 191.04-12.02L191.04-12.02L191.04-12.02Q192.68-11.40 194.06-9.98L194.06-9.98L194.06-9.98Q195.44-8.56 195.44-6.60L195.44-6.60L195.44-6.60Q195.44-3.80 193.14-1.68L193.14-1.68L193.14-1.68Q190.84 0.44 187.84 0.44L187.84 0.44L187.84 0.44Q185.92 0.44 184.26-0.40L184.26-0.40L184.26-0.40Q182.60-1.24 181.88-2.08L181.88-2.08L181.16-2.92L184.32-6.60L184.32-6.60Q184.56-6.28 185-5.80L185-5.80L185-5.80Q185.44-5.32 186.74-4.52L186.74-4.52L186.74-4.52Q188.04-3.72 189.24-3.72" fill="#fa5d49" stroke="none" stroke-width="none" transform="translate(-134.72003173828125,10.521082700841571)" style="fill: rgb(250, 93, 73);"></path></g><g class="path" style="transform: matrix(0.01, 0, 0, 0.01, 0, 0); transform-origin: 71.2px 0.281083px; animation: 1s linear 0.427059s 1 normal forwards running bounce-in-2c578103-c2a7-4ca6-a557-37998a190f5d;"><path d="M202.96 0L202.96 0Q200.60 0 199.10-1.50L199.10-1.50L199.10-1.50Q197.60-3 197.60-5.54L197.60-5.54L197.60-5.54Q197.60-8.08 199.92-9.94L199.92-9.94L199.92-9.94Q202.24-11.80 205.56-11.80L205.56-11.80L208.28-11.80L208.28-12.48L208.28-12.48Q208.28-14.44 207.48-15.16L207.48-15.16L207.48-15.16Q206.68-15.88 204.48-15.88L204.48-15.88L204.48-15.88Q203.56-15.88 202.30-15.50L202.30-15.50L202.30-15.50Q201.04-15.12 199.48-14.32L199.48-14.32L198.32-17.48L198.32-17.48Q200.04-18.68 202.50-19.64L202.50-19.64L202.50-19.64Q204.96-20.60 206.56-20.60L206.56-20.60L206.56-20.60Q212.84-20.60 212.84-14.52L212.84-14.52L212.84-6.68L212.84-6.68Q212.84-4.44 214.24-1.68L214.24-1.68L210 0.12L210 0.12Q209-1.80 208.52-3.32L208.52-3.32L208.52-3.32Q206.32 0 202.96 0L202.96 0zM204.64-4.08L204.64-4.08L204.64-4.08Q206.24-4.08 208.28-5.72L208.28-5.72L208.28-8.40L208.28-8.40Q206.16-8.88 204.84-8.88L204.84-8.88L204.84-8.88Q202.32-8.88 202.32-6.64L202.32-6.64L202.32-6.64Q202.32-5.48 202.96-4.78L202.96-4.78L202.96-4.78Q203.60-4.08 204.64-4.08" fill="#fa5d49" stroke="none" stroke-width="none" transform="translate(-134.72003173828125,10.521082700841571)" style="fill: rgb(250, 93, 73);"></path></g><g class="path" style="transform: matrix(0.01, 0, 0, 0.01, 0, 0); transform-origin: 88.64px 0.341083px; animation: 1s linear 0.465882s 1 normal forwards running bounce-in-2c578103-c2a7-4ca6-a557-37998a190f5d;"><path d="M217.28-19.32L217.28-19.32L222.12-20.36L222.12-20.36Q222.48-17.28 222.60-14.52L222.60-14.52L222.60-14.52Q226.24-20.16 229.44-20.16L229.44-20.16L229.00-13.92L229.00-13.92Q226.68-13.92 225.34-13.50L225.34-13.50L225.34-13.50Q224.00-13.08 222.60-11.84L222.60-11.84L222.60-10.40L223.04-1L217.68 0L218.16-9.72L218.16-9.72Q218.00-15.08 217.28-19.32" fill="#fa5d49" stroke="none" stroke-width="none" transform="translate(-134.72003173828125,10.521082700841571)" style="fill: rgb(250, 93, 73);"></path></g><g class="path" style="transform: matrix(0.01, 0, 0, 0.01, 0, 0); transform-origin: 99.9px 0.341083px; animation: 1s linear 0.504706s 1 normal forwards running bounce-in-2c578103-c2a7-4ca6-a557-37998a190f5d;"><path d="M231.96-19.36L237.32-20.36L236.84-10.40L237.28-1L231.92 0L232.40-9.72L231.96-19.36" fill="#fa5d49" stroke="none" stroke-width="none" transform="translate(-134.72003173828125,10.521082700841571)" style="fill: rgb(250, 93, 73);"></path></g><g class="path" style="transform: matrix(0.01, 0, 0, 0.01, 0, 0); transform-origin: 100.08px -15.8789px; animation: 1s linear 0.543529s 1 normal forwards running bounce-in-2c578103-c2a7-4ca6-a557-37998a190f5d;"><path d="M231.68-26.22L231.68-26.22L231.68-26.22Q231.68-27.56 232.72-28.62L232.72-28.62L232.72-28.62Q233.76-29.68 235.12-29.68L235.12-29.68L235.12-29.68Q236.48-29.68 237.20-28.94L237.20-28.94L237.20-28.94Q237.92-28.20 237.92-26.72L237.92-26.72L237.92-26.72Q237.92-25.24 236.90-24.18L236.90-24.18L236.90-24.18Q235.88-23.12 234.54-23.12L234.54-23.12L234.54-23.12Q233.20-23.12 232.44-24L232.44-24L232.44-24Q231.68-24.88 231.68-26.22" fill="#fa5d49" stroke="none" stroke-width="none" transform="translate(-134.72003173828125,10.521082700841571)" style="fill: rgb(250, 93, 73);"></path></g><g class="path" style="transform: matrix(0.01, 0, 0, 0.01, 0, 0); transform-origin: 113.54px 0.441083px; animation: 1s linear 0.582353s 1 normal forwards running bounce-in-2c578103-c2a7-4ca6-a557-37998a190f5d;"><path d="M248.92-4.08L248.92-4.08L248.92-4.08Q250.08-4.08 251.36-4.68L251.36-4.68L251.36-4.68Q252.64-5.28 253.36-5.88L253.36-5.88L254.08-6.48L255.92-4.24L255.92-4.24Q255.52-3.56 254.68-2.68L254.68-2.68L254.68-2.68Q253.84-1.80 252.98-1.18L252.98-1.18L252.98-1.18Q252.12-0.56 250.70-0.06L250.70-0.06L250.70-0.06Q249.28 0.44 247.76 0.44L247.76 0.44L247.76 0.44Q244.52 0.44 242.48-2.02L242.48-2.02L242.48-2.02Q240.44-4.48 240.44-8.36L240.44-8.36L240.44-8.36Q240.44-13.24 243.28-16.92L243.28-16.92L243.28-16.92Q246.12-20.60 249.92-20.60L249.92-20.60L249.92-20.60Q252.84-20.60 254.46-18.96L254.46-18.96L254.46-18.96Q256.08-17.32 256.08-14.36L256.08-14.36L256.08-14.36Q256.08-12.60 255.48-10.36L255.48-10.36L254.68-9.52L244.68-8.60L244.68-8.60Q245.36-4.08 248.92-4.08zM248.92-16.48L248.92-16.48L248.92-16.48Q247.16-16.48 245.96-15.06L245.96-15.06L245.96-15.06Q244.76-13.64 244.56-11.44L244.56-11.44L251.36-12.28L251.36-12.28Q251.48-13.20 251.48-13.80L251.48-13.80L251.48-13.80Q251.48-16.48 248.92-16.48" fill="#fa5d49" stroke="none" stroke-width="none" transform="translate(-134.72003173828125,10.521082700841571)" style="fill: rgb(250, 93, 73);"></path></g><g class="path" style="transform: matrix(0.01, 0, 0, 0.01, 0, 0); transform-origin: 130.12px 0.441083px; animation: 1s linear 0.621176s 1 normal forwards running bounce-in-2c578103-c2a7-4ca6-a557-37998a190f5d;"><path d="M265.60-3.72L265.60-3.72L265.60-3.72Q267.68-3.72 267.68-5.56L267.68-5.56L267.68-5.56Q267.68-6.20 266.78-6.76L266.78-6.76L266.78-6.76Q265.88-7.32 264.58-7.88L264.58-7.88L264.58-7.88Q263.28-8.44 261.98-9.14L261.98-9.14L261.98-9.14Q260.68-9.84 259.78-11.08L259.78-11.08L259.78-11.08Q258.88-12.32 258.88-13.92L258.88-13.92L258.88-13.92Q258.88-16.60 261.24-18.60L261.24-18.60L261.24-18.60Q263.60-20.60 266.68-20.60L266.68-20.60L266.68-20.60Q268.12-20.60 269.50-20.26L269.50-20.26L269.50-20.26Q270.88-19.92 272.16-19.20L272.16-19.20L269.48-14.32L269.48-14.32Q269.20-14.56 268.76-14.92L268.76-14.92L268.76-14.92Q268.32-15.28 267.10-15.86L267.10-15.86L267.10-15.86Q265.88-16.44 264.94-16.44L264.94-16.44L264.94-16.44Q264.00-16.44 263.50-16.02L263.50-16.02L263.50-16.02Q263.00-15.60 263.00-14.86L263.00-14.86L263.00-14.86Q263.00-14.12 264.38-13.38L264.38-13.38L264.38-13.38Q265.76-12.64 267.40-12.02L267.40-12.02L267.40-12.02Q269.04-11.40 270.42-9.98L270.42-9.98L270.42-9.98Q271.80-8.56 271.80-6.60L271.80-6.60L271.80-6.60Q271.80-3.80 269.50-1.68L269.50-1.68L269.50-1.68Q267.20 0.44 264.20 0.44L264.20 0.44L264.20 0.44Q262.28 0.44 260.62-0.40L260.62-0.40L260.62-0.40Q258.96-1.24 258.24-2.08L258.24-2.08L257.52-2.92L260.68-6.60L260.68-6.60Q260.92-6.28 261.36-5.80L261.36-5.80L261.36-5.80Q261.80-5.32 263.10-4.52L263.10-4.52L263.10-4.52Q264.40-3.72 265.60-3.72" fill="#fa5d49" stroke="none" stroke-width="none" transform="translate(-134.72003173828125,10.521082700841571)" style="fill: rgb(250, 93, 73);"></path></g></g>
</g>
</g>
<style id="bounce-in-2c578103-c2a7-4ca6-a557-37998a190f5d" data-anikit="">@keyframes bounce-in-2c578103-c2a7-4ca6-a557-37998a190f5d
{
  0% {
    animation-timing-function: cubic-bezier(0.0383,0.3388,0.0421,0.6652);
    transform: matrix(0.01,0,0,0.01,0,0);
    opacity: 1;
  }
  4.7% {
    animation-timing-function: cubic-bezier(0.3296,0.3336,0.5772,0.6672);
    transform: matrix(0.556,0,0,0.556,0,0);
    opacity: 1;
  }
  8.4% {
    animation-timing-function: cubic-bezier(0.0781,0.1617,0.0874,0.9301);
    transform: matrix(0.979,0,0,0.979,0,0);
    opacity: 1;
  }
  12.4% {
    animation-timing-function: cubic-bezier(0.8341,0.1496,0.8634,0.7673);
    transform: matrix(1.153,0,0,1.153,0,0);
    opacity: 1;
  }
  16.3% {
    animation-timing-function: cubic-bezier(0.3264,0.3332,0.5758,0.6695);
    transform: matrix(1.008,0,0,1.008,0,0);
    opacity: 1;
  }
  21.2% {
    animation-timing-function: cubic-bezier(0.0921,0.1883,0.3277,1);
    transform: matrix(0.704,0,0,0.704,0,0);
    opacity: 1;
  }
  24.5% {
    animation-timing-function: cubic-bezier(0.6905,0.0944,0.8759,0.7624);
    transform: matrix(0.626,0,0,0.626,0,0);
    opacity: 1;
  }
  27.7% {
    animation-timing-function: cubic-bezier(0.3688,0.332,0.624,0.6684);
    transform: matrix(0.704,0,0,0.704,0,0);
    opacity: 1;
  }
  32.6% {
    animation-timing-function: cubic-bezier(0.1368,0.2364,0.2451,0.9049);
    transform: matrix(0.958,0,0,0.958,0,0);
    opacity: 1;
  }
  37.4% {
    animation-timing-function: cubic-bezier(0.5936,0.0846,0.3495,1);
    transform: matrix(1.085,0,0,1.085,0,0);
    opacity: 1;
  }
  49.5% {
    animation-timing-function: cubic-bezier(0.5522,0.0981,0.3807,1);
    transform: matrix(0.802,0,0,0.802,0,0);
    opacity: 1;
  }
  62.4% {
    animation-timing-function: cubic-bezier(0.4497,0.1349,0.4911,1);
    transform: matrix(1.044,0,0,1.044,0,0);
    opacity: 1;
  }
  74.1% {
    animation-timing-function: cubic-bezier(0.429,0,0.5239,1);
    transform: matrix(0.914,0,0,0.914,0,0);
    opacity: 1;
  }
  87% {
    animation-timing-function: cubic-bezier(0.3501,0,0.6422,1);
    transform: matrix(1.013,0,0,1.013,0,0);
    opacity: 1;
  }
  95.8% {
    animation-timing-function: cubic-bezier(0.3653,0,0.6776,1);
    transform: matrix(0.992,0,0,0.992,0,0);
    opacity: 1;
  }
  100% {
    transform: matrix(1,0,0,1,0,0);
    opacity: 1;
  }
}</style></svg>